<?xml version="1.0" encoding="utf-8"?>
<!-- Generator: Adobe Illustrator 23.0.0, SVG Export Plug-In . SVG Version: 6.00 Build 0)  -->
<svg version="1.1" id="圖層_1" xmlns="http://www.w3.org/2000/svg" xmlns:xlink="http://www.w3.org/1999/xlink" x="0px" y="0px"
	 viewBox="0 0 505.8 185" style="enable-background:new 0 0 505.8 185;" xml:space="preserve">
<style type="text/css">
	.st0{fill:#ABAEAC;}
	.st1{fill:#DDDDDB;}
	.st2{fill:#C1C3C0;}
	.st3{fill:#CD1713;}
	.st4{fill:#037FC7;}
</style>
<title>rocket</title>
<g>
	<g id="圖層_1-2">
		<path class="st0" d="M34.3,20.2C50.4,12.6,68.2,8.9,86.1,9.7c12.9,0.5,25.5,2.8,36.8,9.6c5.6,3.4,10.8,7.3,14.5,12.7
			c1,1.7,3,2.7,5,2.3c4.3-0.4,8.6-0.6,13-0.8c6.9-0.3,8.6,0.6,9.5,7.1c0.6,4.3,2.2,4.9,6.1,4.5c8-0.9,16-2.5,24.2-2
			c-0.5,2-2.1,1.7-3.5,1.9c-5.6,1-11.2,2-16.8,3.3c-2.2,0.5-4.9,1.7-4.3,4.6c0.5,2.5,3,2.8,5.2,3c1.2,0.1,2.3,0.1,3.5,0
			c12.5-0.6,25.1-1.5,37.7-1.8c11.1-0.3,22.2-0.1,33.3,0c3.9,0,7.6-0.1,11-2.2l0.3,31.3c-2.7-0.4-3.5-2.9-5-4.6
			c-0.6-0.7-0.5-2-1.8-2.1c-0.9-0.1-2.2,0.7-2.3-0.9c-0.1-1.3,1.2-1.3,2.1-1.7c3.2-1.4,2.8-4.4,2.4-6.9c-0.4-2.5-1.6-5.7-4.1-5.5
			c-7.3,0.3-14.4,1.7-21.3,4c-3.4,1.2-3.1,3.5,0,5.3c1.5,0.8,2.9,1.7,4.4,2.4c1.5,0.7,2.2,1.5,2,3c-0.2,1.8-1.6,1.8-3,1.9
			c-4.1,0.2-8.5-1.7-12.3,1.5c-0.3,0.2-1.4-0.1-1.8-0.4c-3.5-3.8-7.7-0.8-11.6-1.1c-4.9-0.4-10.3,1-14.3-2.9
			c-1.5-1.5-2.3-1.9-3.9-0.2s-4.5,2.3-4.4-1.1c0-3.7-1.1-2.6-3.1-1.7c-2,0.8-4,1.5-6.1,2.1c-7.9,2.3-12.6,7.8-13.2,15.6
			c-2.2,0.1-4.7,2.2-6.6-0.8c-1.3-8.6-0.6-17.1,0.1-25.7l1.4-18l-1.4-0.1c-0.3,6-1.9,11.8-1.5,18c-0.9,1.5-1.2,3.2-1.1,4.9
			c-3.8,0-2.8,2.9-3,5.1c-0.4,4.3-1.7,5-5.7,3.3c-2.9-1.3-6.1-1.7-8.9-2.6c-4.7-1.6-8.6,1-13,1c-7.7-0.1-15.1-2.4-23.1-1.2
			c-6.3,0.9-13.2-2.2-20-1.9c-1.7,0-3.3-0.5-4.6-1.5c-1.8-1.5-3.2-2-5.2-0.5c-1.1,0.8-2.8,0.6-3.6-0.5c-1.1-1.3-0.3-2.6,0.6-3.6
			c1.6-1.8,3.3-3.6,6.3-3.5c1.8,0.1,3.7,0.5,5.3-0.9l24-0.2c7.6,0.1,15.2-1.5,22.9-0.9c2.5,0.2,5.9,0.1,6.5-2.5
			c0.4-2.6-0.8-5.3-3.1-6.6c0.2-2.4-2.9-3.4-2.7-5.9c0.9-4.2-2-6.5-4.7-8.5c-7.2-5.2-14.1-10-24-10.2c-13.3-0.3-26.6-2.7-39.9-4.3
			l-1.8-0.1h-3.1c-1,0-2,0-3,0c-1.3,0-2.7,0-4,0l-6,0.8C39.7,20,36.2,22.1,34.3,20.2z"/>
		<path class="st1" d="M157.8,63.4c-0.7,8.6-1.4,17.1-0.1,25.7l-0.3,2.8c0.9,3.4-0.3,6.7-0.2,10.1c0.2,9.7-0.1,19.5,1.1,29.2
			c-3.3-1.4-2.8-4.6-2.9-7.2c-0.3-4.3-3.7-5.4-6-4.5c-3.7,1.5-7.1,0.3-10.5,0.7c-12.5,1.4-25.1-0.3-37.6,0.9
			c-6.5,0.6-12.9-1.3-19.5-0.1c-4,0.7-8.5,1.8-12.6-0.4c-0.8-0.1-1.6,0.1-2.2,0.7c-3.1,2.9-6.1,2.5-9.8-0.4c0.8,4.4,1.5,8.1,2,11.8
			c0.2,1,0.7,2.5-0.9,2.9c-0.5,0.1-1.3-0.9-2-1.4c-2.6-17.2-3.6-34.6-2.9-52c0.9-0.7,0.8-1.3,0-2c-0.1-3.7-0.3-7.3,0.7-10.9
			c2.6,0,2.3,1.9,2.3,3.5c0,2.7,0,5.3,0,8c1.5,0.5,2-1.3,3.6-0.9c7.6,1.9,14.9,4.5,23,4.7c5.7,0.2,11.4-0.3,17.1-0.2
			c12.2,0.4,24.3,1.2,36.5,2c3.9,0.3,7.8,0.3,11.4,2.2c3.1,1.7,7.7-1.2,7.2-4.6c-0.4-3,0.4-5.9,0.1-8.8c0-0.3,0.1-0.6,0-0.9v-6.1
			c-0.2-1.7,0.2-3.4,1.1-4.9C156.8,63.2,157.3,63.3,157.8,63.4z"/>
		<path class="st2" d="M155.2,75.1c0.2,2.9-0.5,5.8-0.1,8.8c0.5,3.4-4.1,6.3-7.2,4.6c-3.6-1.9-7.6-2-11.4-2.2
			c-12.2-0.8-24.3-1.6-36.5-2c-5.7-0.2-11.4,0.3-17.1,0.2c-8.1-0.2-15.4-2.8-23-4.7c-1.6-0.4-2.1,1.5-3.6,0.9c0-2.7,0-5.3,0-8
			c0-1.6,0.3-3.5-2.3-3.5c-0.3-4.8,0.7-9.6,1.5-14.3c0.4-2.6-0.3-3.7-2.4-5.1c-8.1-5.5-17.2-7.5-26.8-7.6c-3.7-0.1-7.6,0-11-1.9
			c-0.3-3.2,0.9-5.6,4.1-6.5c5.2-1.6,10.3-3.4,15.6-4.5c7.7-1.6,15.5-2.9,23.4-3.9c3.7-0.5,1-2,0.9-3.1c13.3,1.5,26.5,4,39.9,4.3
			c9.9,0.2,16.8,5,24,10.2c2.7,1.9,5.5,4.3,4.7,8.5c-1.2-0.8-2.4-1.7-3.5-2.8c-6.5-7.3-15.1-10.5-24.2-12.9
			c-1.8-0.5-3.6-1.1-4.9,0.9c-2.8,1.5-5.4-2.5-9.3,0.2c5,1.3,7.9,3.8,8.1,8.7c0.1,1.9,2.4,2.4,3.9,1.2c1.7-1.4,3-3.3,5.3-0.8
			c1.8,2,4.2,3.6,1.6,6.7c-0.7,0.9-0.6,2.2,0.3,3c0.1,0,0.1,0.1,0.2,0.1c0.9,0.8,2.3,0.8,3.2-0.1c1-0.8,1.8-2,3.4-1.7
			c5.5,1.1,11.7,0.2,14.8,7c1.3,2.7,3.2,2,3.5-1.2l0.1-2.3c2.3,1.4,3.5,4,3.1,6.6c-0.6,2.6-4,2.6-6.5,2.5c-7.7-0.5-15.2,1-22.9,0.9
			c-8-1.5-15.9-1.9-23.9,0.2c-1.6,1.4-3.5,1-5.3,0.9c-2.9-0.2-4.6,1.6-6.3,3.5c-0.8,0.9-1.7,2.3-0.6,3.6c0.9,1.1,2.5,1.3,3.6,0.5
			c2-1.5,3.4-1,5.2,0.5c1.3,1,3,1.6,4.6,1.5c6.8-0.3,13.7,2.9,20,1.9c8-1.2,15.4,1.2,23.1,1.2c4.4,0,8.3-2.6,13-1
			c2.8,1,6,1.3,8.9,2.6c3.9,1.8,5.2,1,5.7-3.3c0.2-2.1-0.9-5,3-5.1v6.1C154.8,74.4,154.7,74.7,155.2,75.1z M62.3,59.9
			c0.9-0.7,4.7,1.7,4.2-1.7c-0.3-2.4-4-3.4-6.5-3.7c-2.2-0.3-1.6,2-1.8,3.4C58.1,60.6,59.4,61.1,62.3,59.9z"/>
		<path class="st3" d="M484.3,97.1c-0.5,4.1-3.5,6.3-6.4,8.5c-11.6,8.7-25.1,13.3-38.6,17.6c-8.3,2.6-17,4.3-25.5,6.4
			c-1.6,0.3-3.3,0.5-4.9,0.6c-0.1-2-0.1-4-0.3-5.9c-0.5-6.7,2.8-13.1,1.6-19.9v-3.5c0.2-0.1,0.2-0.4,0.1-0.5c0,0,0,0-0.1-0.1
			l0.4-1.6c0.9-9.5,0.7-19.1-0.4-28.6c-0.1-4.2,0.9-8.5-0.7-12.6c2.3-1.3,4.5-0.4,6.8,0c15,3,29.4,8.4,44.1,12.6l-0.1-0.1
			c1.4,1.5,3.2,1.8,5.1,2.1l-0.1-0.1l2.1,1.1l-0.1-0.1l2,1.1h0l1.1,1l-0.1-0.1l2.3,1.1c4.8,2.7,9.4,5.6,11.7,11L484.3,97.1z"/>
		<path class="st1" d="M410.1,100.9v3.5c-3,8.6-5.7,17.2-4.9,26.5c-14.5,2.8-29,5.3-43.8,6.5c-14.6,1.1-29.1,3.3-43.8,4.3
			c-11.8,0.8-23.6,1.5-35.4,2.2l0.2-11.7c1.9-1.2,3.7-2.9,6.1-0.7c1.3,0.9,3,0.9,4.3,0c2.4-1.7,5.1-1.5,7.7-1.4
			c7.1,0.3,14.2,1,21.3,0.8c8.4-0.2,16.7-1.6,25.1-1.8c11.7-0.5,23.3-2.4,34.4-5.9c1.3-0.4,3.6,0.5,3.4-1.8
			c-0.1-1.9-2.4-1.5-3.7-1.8c-1.9-0.3-3.9-0.3-5.9,0c-9.3,1.3-18.6,1.2-27.7-1.7c0-0.3-0.1-0.6-0.3-0.8l0.1-0.1
			c1.4,0.2,2.3-0.2,1.9-1.9l0.1-0.1c0.7,0.4,1,0.1,1.1-0.6c0.7,0,1.2-0.5,1.2-1.2c0,0,0,0,0-0.1c1.8-0.3,2.5-1.3,2.3-3.1
			c-2-0.2-2.5,1.3-3.2,2.5l-1,1c-0.3,0.1-0.5,0.2-0.8,0.3l-1.8-3.5c4.3-5,6.4-11,8-17.2c1.3,0,2.6-0.1,3.9-0.1
			c0,0.8,0.1,1.6,0.4,2.4c0.4,0.6,0.6-0.1,0.6-0.5c0.2-3.7,3-2.6,4.9-2.6c11.1,0,22.2,0.1,33.4,0.1c0.9,0,2.4,0.8,2.8-1.1
			c-7.3-1.3-14.6,0.2-21.8-0.6c-0.1-0.1-0.2-0.3-0.3-0.3c-0.3,0.1-0.5,0.2-0.7,0.3c-3.1,0.3-6.1,0.2-9.2-0.3c0.3-2,1.3-2.9,3.3-3.7
			c4.9-1.9,10-3.1,15.3-3.5c7.1-0.4,14-4.4,21.3-1.3c0.9,5.5-1,11.2,1.6,16.5l-0.4,1.6l-0.3,0.3L410.1,100.9z M357.9,101.9
			c-1.6,2.1-3.4,4.3-3.4,7.8C357.3,107.4,358.3,105.1,357.9,101.9z"/>
		<path class="st0" d="M15.2,150.7c5.7-4,12.1-2.3,18.3-2.5c4.3-0.1,8.9,0.5,12.6-1.9c3.2-2.1,6.7-3.5,9.8-5.5
			c5.1-3.4,10.6-6.5,14.4-11.6c5.6-4.1,11.6-0.9,17.3-0.8c13.9,0.3,27.6,2.9,41.6,2.7h2c-1.1,5.5-3.9,10.1-7.5,14.2
			c-11,12.7-25.4,19.8-41.4,23.8c-1.4-1.3-1.8-0.3-2.1,0.9l-0.1,0.1h-1.7h-1.1c-3.1-2.4-6.1,0.1-9.1,0.1c-1,0-1.9,0-2.9,0
			c-2.3-1.7-4.6-1.5-7-0.2c-1,0-1.9-0.1-2.9-0.1c-1-2.2-2.4-2.1-4.1-0.9c-0.6,0-1.3-0.1-1.9-0.1c-0.4-1.1-0.8-2.1-2.1-0.8
			c-4.3-1.1-8.6-2.1-12.9-3.1c-0.4-1.1-0.7-2.2-2.1-0.9c-4.1-1.7-8.2-3.5-12.3-5.2C16.3,157.4,14.4,154.8,15.2,150.7z"/>
		<path class="st2" d="M70.3,129.2c-3.8,5.1-9.3,8.2-14.4,11.6c-3.1,2-6.6,3.4-9.8,5.5c-3.7,2.4-8.3,1.8-12.6,1.9l0.5-2.9
			c5.4-1.3,10.9-2.6,16.3-3.9L50,140c-5.7,1.4-11.6-2-17.3,1.2c0.2-4,2.6-5.7,6.3-6.2c5.7-0.9,11.4-0.5,17.1-0.8
			c0.7,0.5,1.4,1.5,2,1.4c1.6-0.3,1.1-1.8,0.9-2.9c-0.6-3.7-1.3-7.4-2-11.8c3.7,2.9,6.7,3.3,9.8,0.4c0.6-0.5,1.4-0.7,2.2-0.6
			c4.2,2.2,8.7,1.1,12.6,0.4c6.6-1.1,13.1,0.7,19.5,0.1c12.5-1.1,25.1,0.5,37.6-0.9c3.5-0.4,6.9,0.9,10.5-0.7c2.3-0.9,5.7,0.2,6,4.5
			c0.1,2.5-0.4,5.8,2.9,7.2c0.4,1.1,0.7,2.2,0.9,3.3c0.1,2.2,0.4,5.3,2.8,4.9s1-3.6,1-5.6c0-0.2-0.1-0.3-0.1-0.5
			c-0.9-3-1.1-5.5,2.9-6.4c2.4-0.6,2.8-2.8,1.4-4.8c-1.1-1.8-2.6-3.4-4.3-4.7c-3-2.1-3.5-4.8-3.7-8.1c-0.2-5.9,1.4-11.4,2-17.2
			c1.6-0.5,3.4-0.6,5-0.1c-0.7,2.2,3,6.8-3.3,5.9c-0.4,0.7-0.6,1.4-0.6,2.2c-0.2,2.7-0.2,5.3,0.1,8c0.6,3.3,1.5,6.7,4.8,8.3
			c6,2.9,12.6,3.3,19.1,3.8c12.5,0.8,25.1-2.3,37.7-0.1c1.1,0.3,2.3,0.1,3.4-0.5c1.9-1.7,3.9-0.8,5.6-0.2c3,1,5.8,4.6,8.8,0
			c0.2-0.3,1.3-0.1,1.9,0.1c7.1,3.5,12.5,0.5,17.4-4.5c0.5,6-1.9,11.9-0.7,17.9c-1.8,0.4-3.1-0.9-4.6-1.3c-7.9-2-15.9,0-23.8-0.2
			c-1.5,0-3,0.5-4.8,0.1c-7.1-1.7-14.6,0.5-21.6-2.1c-0.7-0.3-1.8,0.7-2.8,1c-0.9,0.4-1.9,0.6-2.9,0.6c-7.2-1-14.5-1.4-21.7-2
			c-9.1-0.7-10.1-0.2-11.9,9.1c-2.8,0.6-1.9,3.2-2.3,4.9c-1.4,5.3-3.1,6.7-8.5,5.9c-7.4-1.1-14.9-1-22.2-2.8c0.1-1.4-0.7-2.5-1-3.8
			c-0.9-3-0.1-5.4,3.3-6.4c5.4-1,10.5-3.3,16.2-2.2c0.9,0.2,1.4-0.8,1.5-1.7c0.2-2.9,0.8-5.6-3.9-6.3c-8.7-1.4-13.4-0.2-15.4,5.5
			l-2.8-0.2h-1.9c-0.7-1.6-2.1-2-3.7-2c-16.2-0.5-32.4-1.9-48.5-4c-3.7-0.5-7.7-0.8-10.4,3.1C67.7,129.6,69.1,129.1,70.3,129.2z"/>
		<path class="st2" d="M408.9,82.2c-7.3-3.1-14.2,0.9-21.3,1.3c-5.2,0.4-10.4,1.6-15.3,3.5c-2,0.8-3.1,1.7-3.3,3.7
			c-7.9,0.8-7.9,0.8-9.6-6.6c-0.3-1.3-0.5-2.6-0.8-3.9c0.7-0.4,1.4-0.9,1.2-1.8c-0.3-1.2-1.3-1.1-2.3-0.9l-2.8-4.6
			c0.5-3,0.9-6.3,4.8-6.5c3.4-0.2,6.8,0.3,10.2,0.4c6.5,0.2,12.9,0.3,19.4,0.3c2,0,3.8-1.1,3.8-3.2c-0.1-2.4-2.3-2.5-4.1-2.6
			c-3-0.3-5.9-0.1-8.9-0.6c-14.7-2.5-29.6-2.6-44.4-4.4c-1.9-0.2-4.1-0.6-5.4,1.5l-1.5-0.4c-0.4-1.2-1.1-2.2-2.4-2.1
			c-10.8,0.8-21.4-2-32.2-0.8c-7.8,0.9-10-0.2-12.5-6.4l-0.5-6.5c11.8-0.5,23.6,0.9,35.3,1.8c27.4,2,54.8,4.3,81.9,8.7
			c3.8,0.6,7.5,1.5,11.2,2.3l0.2,3.1c1.6,4.1,0.6,8.4,0.7,12.6C408.2,74,410,78.3,408.9,82.2z"/>
		<path class="st3" d="M280.8,41.6l0.5,6.5c-1.8,1.4-1.3,3.7-0.7,5c2.5,5.2,1.5,10.7,1.6,16c0.1,7.1,0.1,14.2,0.1,21.3v1.5l-0.1,2.3
			c-0.2,1.3-0.4,2.6-0.4,3.9c-0.1,12.4-0.2,24.8-0.2,37.2c0,3-0.4,6.1-4,6.4c-5.4,0.4-10.9,1.3-16.2-0.8l-0.2-7.6
			c2-9.4,1.1-18.9,0.8-28.4l0.1-1.4c0.5-1.8,0.6-3.8,0.1-5.6l-0.1-1.4c0.7-3.1,0.5-6.4-0.7-9.4c0.5-1.2,0.5-2.5,0.1-3.8L261.4,52
			v-8.7c2.2-0.8,4.5-1.2,6.8-1.2c4.1-0.2,8.3,0.9,12.3-0.7L280.8,41.6z"/>
		<path class="st1" d="M261.2,133.3l0.2,7.6c-0.5,1.3,0.3,2.2,0.8,3.2c-32.1,0.5-64.1-2.1-96-6c1.8-9.4,2.8-9.8,11.9-9.1
			c7.3,0.6,14.5,1,21.7,2c1,0,2-0.2,2.9-0.6c1-0.3,2.1-1.2,2.8-1c7.1,2.6,14.5,0.4,21.6,2.1c1.7,0.4,3.2-0.2,4.8-0.1
			c7.9,0.2,15.9-1.8,23.8,0.2c1.5,0.4,2.8,1.7,4.6,1.3C260.6,133.1,260.9,133.2,261.2,133.3z"/>
		<path class="st2" d="M261.4,43.3V52c-3.4,2.1-7.1,2.2-11,2.2c-11.1-0.1-22.2-0.3-33.3,0c-12.6,0.4-25.2,1.3-37.8,1.9
			c-1.2,0.1-2.3,0.1-3.5,0c-2.2-0.2-4.7-0.5-5.2-3c-0.5-2.9,2.1-4.1,4.3-4.6c5.5-1.3,11.1-2.3,16.8-3.3c1.5-0.3,3.1,0.1,3.5-1.9
			c21.3-1.8,42.6-2.6,64-2.2C259.4,42.2,260.3,43.2,261.4,43.3z"/>
		<path class="st1" d="M135.5,136c-3.4,0.9-4.1,3.4-3.3,6.4c0.4,1.2,1.1,2.4,1,3.8c-2.1-0.1-2.6,1.7-3.5,3
			c-8.7,11.8-20.5,19-34.3,23.1c-1.1-2.7-2.5-3.3-5.6-2.4s-6.5,2.9-9.8,0.2l0.1-0.1c0.8,0.1,1.6-0.2,2.1-0.9
			c16.1-4,30.4-11.1,41.4-23.8c3.6-4.1,6.5-8.7,7.5-14.2c0.9,0.1,1.8,0.1,2.8,0.2C135,132.7,135.5,134.3,135.5,136z"/>
		<path class="st1" d="M34.3,165c4.3,1,8.6,2.1,12.9,3.1c0.5,0.7,1.3,1,2.1,0.8c0.6,0,1.3,0.1,1.9,0.1c1.1,1.4,2.6,1,4.1,0.9
			c1,0,1.9,0.1,2.9,0.1c2.1,1.5,4.9,1.6,7,0.2c1,0,1.9,0,2.9,0c-0.1,1.8-1.6,1.7-2.9,2.1c-4.8,1.5-9.8,0.3-14.7,1
			c0.3,1.2,2,1.4,1.7,2.8c-12.8-1.2-24.9-4.6-36-11.2c-6.1-3.6-6.4-9.2-1.1-14.3c-0.8,4.1,1.1,6.7,4.7,8.2c4.1,1.8,8.2,3.5,12.3,5.2
			C32.7,164.8,33.5,165.1,34.3,165z"/>
		<path class="st2" d="M52.2,176.1c0.2-1.4-1.5-1.6-1.7-2.8c4.9-0.7,9.9,0.6,14.7-1c1.2-0.4,2.7-0.3,2.9-2.1c3,0,6-2.5,9.1-0.1
			c0.1,0.1,0.3,0.3,0.3,0.3c0.3-0.1,0.5-0.2,0.8-0.4h1.7c3.3,2.6,6.7,0.6,9.8-0.2s4.6-0.3,5.6,2.4C81.4,177.6,67,178.3,52.2,176.1z"
			/>
		<path class="st1" d="M59.1,22.3c0.1,1.1,2.8,2.6-0.9,3.1c-7.8,1-15.6,2.3-23.4,3.9c-5.3,1.1-10.4,2.9-15.6,4.5
			c-3.1,1-4.3,3.4-4.1,6.5c-4.2-1.8-4.3-5.3-3.7-9.2c3.1-1.1,6.3-2,9.3-3.2c6.6-2.7,13.7-3.1,20.5-5l6-0.8c1.3,2.8,2.7,2.7,4,0
			c1,0,2,0,3,0c1,2.4,2,2.4,3.1,0L59.1,22.3z"/>
		<path class="st2" d="M41.2,22.9c-6.8,1.9-13.9,2.4-20.5,5c-3,1.2-6.2,2.2-9.3,3.2c0-3.8,2.8-5,5.6-6c5.6-2,11.4-3.7,17.2-4.9
			C36.2,22.1,39.7,20,41.2,22.9z"/>
		<path class="st0" d="M409.5,57.6l-0.2-3.1c17.6,3.2,34.7,8.5,51.1,15.7c-14.7-4.2-29.1-9.6-44.1-12.6
			C413.9,57.1,411.7,56.3,409.5,57.6z"/>
		<path class="st0" d="M262.2,144c-0.6-1-1.3-1.9-0.8-3.2c5.3,2.1,10.8,1.3,16.2,0.8c3.6-0.3,4-3.4,4-6.4
			c0.1-12.4,0.1-24.8,0.2-37.2c0.1-1.3,0.2-2.6,0.4-3.9l0.3,0.1c-0.4,8.9-0.5,17.8-0.1,26.8v11.2l-0.2,11.7
			C275.6,144.1,268.9,144.7,262.2,144z"/>
		<path class="st0" d="M484.3,97.1l-0.1-9.9c3.8,0.3,7.5,1,11.1,2.3c1.5,0.6,3.8,1.2,2.2,3.8c-1.7-1.7-4.1-1.8-6.4-2.3
			c-1.3-0.4-2.7,0.2-3.4,1.3c-1.1,1.8,0.3,2.7,1.5,3.5C487.6,96.3,485.9,96.7,484.3,97.1z"/>
		<path class="st2" d="M405.2,130.9c-0.8-9.3,1.9-17.9,4.9-26.5c1.2,6.8-2.2,13.2-1.6,19.9c0.2,2,0.2,4,0.3,5.9
			C407.7,130.8,406.4,131.1,405.2,130.9z"/>
		<path class="st1" d="M32.8,141.2c5.6-3.3,11.5,0.2,17.3-1.2l0.3,1.4c-5.4,1.3-10.9,2.6-16.3,3.9C31.6,144.5,32.4,142.8,32.8,141.2
			z"/>
		<path class="st0" d="M261.4,43.3c-1.2-0.2-2.1-1.1-2.2-2.3c7.1,0.1,14.2,0.3,21.3,0.4c-4,1.7-8.2,0.5-12.3,0.7
			C265.9,42.1,263.6,42.5,261.4,43.3z"/>
		<path class="st1" d="M489.3,95.9c-1.3-0.8-2.6-1.7-1.5-3.5c0.7-1.2,2.1-1.7,3.4-1.3c2.2,0.4,4.6,0.5,6.4,2.3v0.1
			c-2.4-0.2-4.7-0.1-6.4,2.1L489.3,95.9z"/>
		<path class="st0" d="M491.1,95.5c1.6-2.2,3.9-2.3,6.4-2.1C495.8,95.3,493.4,95.3,491.1,95.5z"/>
		<path class="st0" d="M465.3,72.2c-1.9-0.2-3.7-0.6-5.1-2.1C461.9,70.8,463.6,71.5,465.3,72.2z"/>
		<path class="st2" d="M53.3,80.1c0.8,0.7,0.9,1.3,0,2V80.1z"/>
		<path class="st0" d="M472.5,76.2l-2.3-1.1L472.5,76.2z"/>
		<path class="st0" d="M469.2,74.2l-2-1.1L469.2,74.2z"/>
		<path class="st0" d="M467.3,73.2l-2.1-1.1L467.3,73.2z"/>
		<path class="st0" d="M470.3,75.2l-1.1-1L470.3,75.2z"/>
		<path class="st2" d="M261.7,83.3c0.4,1.2,0.4,2.6-0.1,3.8c-1.8,0.4-3.8,0.7-4.3,2.9c-15.5,0-31,0.2-46.4,0.1
			c-8.9,0-17.9-0.3-26.8-0.5c-6.5-0.2-13.1,1-19.7,0.3c0.7-7.8,5.3-13.2,13.2-15.6c2.1-0.6,4.1-1.2,6.1-2.1c2-0.9,3.1-1.9,3.1,1.7
			c0,3.4,2.8,2.8,4.4,1.1s2.4-1.3,3.9,0.2c4.1,4,9.4,2.5,14.3,2.9c3.9,0.3,8-2.6,11.6,1.1c0.4,0.4,1.5,0.7,1.8,0.4
			c3.8-3.3,8.2-1.4,12.3-1.5c1.4,0,2.8,0,3-1.9c0.2-1.5-0.7-2.4-2-3s-2.9-1.6-4.4-2.4c-3.1-1.8-3.4-4,0-5.3c6.9-2.3,14.1-3.7,21.3-4
			c2.5-0.2,3.8,3.1,4.1,5.5s0.7,5.5-2.4,6.9c-0.9,0.4-2.2,0.3-2.1,1.7c0.1,1.6,1.4,0.8,2.3,0.9c1.3,0.1,1.2,1.4,1.8,2.1
			C258.2,80.4,259,82.9,261.7,83.3z"/>
		<path d="M164.3,89.8c6.6,0.8,13.2-0.4,19.7-0.3c8.9,0.3,17.9,0.5,26.8,0.5c15.5,0,31-0.1,46.4-0.1c0.9,0.8,3.6-0.8,2.9,2.1
			c-21.6,0-43.3-0.7-64.9,0.1h-2h-3l-24-0.1c-1.6-0.5-3.4-0.4-5,0.1c-1.3-0.1-2.6-0.2-3.8-0.3l0.3-2.8
			C159.6,92,162.1,89.9,164.3,89.8z"/>
		<path class="st1" d="M95.2,30.4c1.3-2,3.2-1.4,4.9-0.9c9.1,2.4,17.7,5.6,24.2,13c1.1,1,2.2,1.9,3.5,2.8c-0.2,2.5,2.8,3.4,2.7,5.9
			l-0.1,2.3c-1-0.7-1.8-1.4-2.6-2.2C119.1,40.6,107.5,34.9,95.2,30.4z"/>
		<path class="st2" d="M157.8,63.4c-0.5-0.1-1-0.2-1.5-0.2c-0.4-6.1,1.2-11.9,1.5-17.9l1.4,0.1L157.8,63.4z"/>
		<path class="st1" d="M80.2,61.2c8-2.1,15.9-1.7,23.9-0.2C96.1,61.1,88.2,61.2,80.2,61.2z"/>
		<path class="st2" d="M51.3,22.1c-1.3,2.7-2.7,2.8-4,0C48.6,22.1,49.9,22.1,51.3,22.1z"/>
		<path class="st2" d="M57.3,22.2c-1,2.4-2.1,2.4-3.1,0H57.3z"/>
		<path class="st0" d="M157.4,91.9c1.3,0.1,2.6,0.2,3.8,0.3c-0.7,5.7-2.2,11.3-2,17.2c0.1,3.4,0.7,6,3.7,8.1
			c1.7,1.3,3.2,2.9,4.3,4.7c1.4,2,1,4.2-1.4,4.8c-4,1-3.8,3.5-2.9,6.4c0.1,0.1,0.1,0.3,0.1,0.5c0,2,1.5,5.1-1,5.6s-2.7-2.7-2.8-4.9
			c-0.2-1.1-0.5-2.2-0.9-3.3c-1.1-9.7-0.9-19.4-1.1-29.2C157.1,98.6,158.3,95.3,157.4,91.9z"/>
		<path class="st0" d="M155.2,75.1c-0.4-0.3-0.4-0.6,0-0.9C155.2,74.5,155.2,74.8,155.2,75.1z"/>
		<path class="st0" d="M95.2,30.4c12.3,4.6,23.9,10.2,32.4,20.7c0.8,0.8,1.7,1.6,2.6,2.2c-0.3,3.1-2.3,3.9-3.5,1.2
			c-3.1-6.7-9.3-5.9-14.8-7c-1.6-0.3-2.4,1-3.4,1.7c-0.9,0.9-2.3,0.9-3.2,0.1c-1-0.6-1.2-2-0.6-2.9c0-0.1,0.1-0.1,0.1-0.2
			c2.6-3,0.2-4.7-1.6-6.7c-2.3-2.4-3.5-0.5-5.3,0.8c-1.5,1.2-3.9,0.7-3.9-1.2c-0.2-5-3.1-7.4-8.1-8.7C89.8,27.8,92.4,31.9,95.2,30.4
			z"/>
		<path class="st0" d="M62.3,59.9c-2.9,1.1-4.3,0.6-4.1-2c0.1-1.4-0.5-3.6,1.8-3.4c2.6,0.3,6.2,1.3,6.5,3.7
			C67.1,61.7,63.3,59.3,62.3,59.9z"/>
		<path class="st0" d="M408.9,82.2c1.1-4-0.8-8.2,1.3-12.1c1.1,9.5,1.2,19.1,0.4,28.6C407.9,93.5,409.9,87.7,408.9,82.2z"/>
		<path class="st2" d="M410.1,100.9l-0.3-0.3l0.3-0.3C410.3,100.5,410.3,100.7,410.1,100.9C410.2,100.9,410.1,100.9,410.1,100.9z"/>
		<path class="st4" d="M355.3,93.3c-1.6,6.2-3.7,12.3-8,17.2c-1.9,2.2-4.3,3.5-6.7,5c-16.8,10.4-39.9,2.9-43.7-18.8
			c-0.3-1.6-0.3-3.4-1.6-4.6c1.9-6.4,2.7-13.3,7.2-18.7c11-13.5,33.1-13.5,45.7-0.1l0.6,0.9l0.6,0.6l0.2,0.2l2.8,4.9l0.1,0.2
			l0.7,1.1C353.3,85.3,356.1,89,355.3,93.3z"/>
		<path class="st2" d="M282.5,132.2V121c6.8,1.6,13.5,3,19.6-2.2c0.8,0.1,1.5,0.2,2.3,0.3l-0.1-0.1c-0.1,1.5,1.2,1.6,2.1,2.2
			l-0.1-0.1c3.5,2.9,8,3.3,12.1,4.6c3.8,1.1,7.8,1.1,11.6,0.2c4.3-1.2,9.6-0.8,12.3-5.7l0.1-0.1c0.9,0.2,1.6,0.2,1.8-0.9l0.2-0.1
			c1.2,0.3,2.5-0.1,3.3-1.1c9.1,2.9,18.3,2.9,27.7,1.7c1.9-0.3,3.9-0.3,5.9,0c1.3,0.3,3.5-0.1,3.7,1.8c0.2,2.3-2.2,1.5-3.4,1.8
			c-11.2,3.5-22.7,5.4-34.4,5.9c-8.4,0.2-16.7,1.6-25.1,1.8c-7.1,0.2-14.2-0.6-21.3-0.8c-2.6-0.1-5.3-0.3-7.7,1.4
			c-1.3,0.9-3,0.9-4.3,0C286.2,129.4,284.4,131,282.5,132.2z"/>
		<path class="st2" d="M295.3,92.2c1.4,1.2,1.4,3,1.6,4.6c3.7,21.6,26.9,29.2,43.7,18.8c2.4-1.5,4.8-2.8,6.7-5l1.8,3.5l0.3,1.1
			l-0.1,0.1c-1,0-1.9,0.9-1.9,1.9l-0.1,0.1c-1.3-0.3-2.6,0.4-2.9,1.7c0,0.1,0,0.1,0,0.2l-0.2,0.1c-0.7-0.3-1.5,0.1-1.8,0.8
			c0,0,0,0.1,0,0.1l-0.1,0.1c-7.7,3.1-15.9,4.5-24.2,4.1c-4.3,0.4-7.7-2.8-11.9-3.2l0.1,0.1c0.2-1.6-1.3-1.6-2.1-2.2l0.1,0.1
			l-7.1-7.1l0.1,0.1l-1.1-1.1l0.1,0.1c-0.4-0.5,0-1.6-1.1-1.6c-0.8-5.4-4-10.3-3.1-16C293.2,93.1,294.2,92.6,295.3,92.2z"/>
		<path d="M358.7,80.3c0.3,1.3,0.5,2.6,0.8,3.9c1.7,7.4,1.7,7.4,9.6,6.6c3,0.6,6.1,0.7,9.2,0.3h1c7.2,0.8,14.5-0.7,21.8,0.6
			c-0.4,1.9-1.9,1.1-2.8,1.1c-11.1,0-22.3-0.1-33.4-0.1c-1.9,0-4.6-1.2-4.8,2.4c0,0.4-0.2,1.1-0.6,0.5c-0.3-0.8-0.4-1.6-0.4-2.4
			c1.2-8.4-2.4-15.2-7.1-21.6c0.1-0.3,0.3-0.6,0.4-0.8l2.3,2.2l2.8,4.6L358.7,80.3z"/>
		<path class="st2" d="M352.1,71.5c4.7,6.4,8.3,13.2,7.1,21.6c-1.3,0-2.6,0.1-3.9,0.1c0.9-4.3-2-7.9-2.1-12l-0.7-1.1l-0.1-0.2
			c-0.2-2,0.7-4.8-2.8-4.9l-0.2-0.2c-0.1-0.3-0.4-0.5-0.6-0.6l-0.5-0.9l1.4-4c0.2-0.1,0.4-0.1,0.6-0.2l0.1,0.1
			c0,0.6,0.3,0.9,0.9,0.9l0.1,0.1c-0.2,0.5,0.1,1.1,0.6,1.3C352,71.5,352,71.5,352.1,71.5z"/>
		<path class="st0" d="M357.9,101.9c0.4,3.2-0.7,5.6-3.4,7.8C354.6,106.1,356.3,103.9,357.9,101.9z"/>
		<path class="st0" d="M350.8,112.8c0.7-1.2,1.2-2.7,3.2-2.5c0.1,1.8-0.6,2.8-2.3,3.1L350.8,112.8z"/>
		<path class="st0" d="M344.3,119.1c0.2-1.3,1.5-2.1,2.8-1.9c0.1,0,0.1,0,0.2,0c0.2,0.2,0.3,0.5,0.3,0.8
			C346.8,119,345.5,119.4,344.3,119.1z"/>
		<path class="st0" d="M347.3,117.1c0.1-1,0.9-1.8,1.9-1.9C349.7,117,348.7,117.3,347.3,117.1z"/>
		<path class="st0" d="M349.3,115.2l-0.3-1.1c0.3-0.1,0.5-0.2,0.8-0.3l0.6,0.8C350.3,115.2,350.1,115.6,349.3,115.2z"/>
		<path class="st0" d="M351.7,113.3c0,0.7-0.5,1.2-1.1,1.3c0,0-0.1,0-0.1,0l-0.6-0.8l1-1L351.7,113.3z"/>
		<path class="st2" d="M379.3,91h-1c0.2-0.1,0.5-0.3,0.7-0.3C379,90.7,379.2,90.9,379.3,91z"/>
		<path class="st1" d="M70.3,129.2c-1.2-0.2-2.6,0.3-3.6-0.9c2.7-3.9,6.7-3.6,10.4-3.1c16.1,2.1,32.3,3.4,48.5,3.9
			c1.6,0,3,0.4,3.7,2c-13.9,0.2-27.7-2.4-41.6-2.7C81.9,128.3,75.9,125.1,70.3,129.2z"/>
		<path class="st2" d="M65.3,170.2c-2.1,1.4-4.9,1.3-7-0.2C60.6,168.7,63,168.5,65.3,170.2z"/>
		<path class="st2" d="M55.4,169.9c-1.5,0.2-3,0.5-4.1-0.9C53,167.8,54.4,167.7,55.4,169.9z"/>
		<path class="st2" d="M82.2,169.1c-0.5,0.7-1.3,1-2.1,0.9C80.5,168.9,80.9,167.9,82.2,169.1z"/>
		<path class="st2" d="M49.4,168.9c-0.8,0.2-1.6-0.1-2.1-0.8C48.5,166.9,49,167.8,49.4,168.9z"/>
		<path class="st2" d="M34.3,165c-0.8,0.1-1.6-0.2-2.1-0.9C33.6,162.8,34,163.9,34.3,165z"/>
		<path class="st1" d="M78.3,170.1c-0.2,0.1-0.5,0.3-0.8,0.4c-0.1,0-0.2-0.2-0.3-0.3C77.6,170.1,78,170.1,78.3,170.1z"/>
		<path class="st1" d="M193.3,92.2h2c0,2.7,3.7,0.7,4,3.5c0.4,3.8,2.4,2.9,4,0.6c1.5-2,2.6-3,4.3-0.1c0.9,1.6,3,3.1,4.3,0.5
			c1.9-3.8,4.9-2,5.9-0.6c1.8,2.6,2.7,1.2,4.3,0.3c1.4-0.7,4-2.5,4.2-0.2c0.3,3.2,1.8,1.5,2.9,1.5c4.2-0.2,8.5-1.2,12.6-0.6
			c2.5,0.3,4.4,1,6-1.4c0.8-1.2,2.3-2.2,3.2-0.6c2,3.7,3.9,3.3,6.3,0.5c0.9-1,2.5-0.4,3.8-0.3l1.2,1.1l0.1,1.4
			c-1.6,1.5-1.6,4-0.1,5.6l-0.1,1.4c-1.9,3.2-0.4,6.8-1,10.2c-4.9,5-10.3,8-17.4,4.5c-0.6-0.3-1.7-0.4-1.9-0.1c-3,4.7-5.8,1.1-8.8,0
			c-1.7-0.6-3.7-1.4-5.6,0.2c-1,0.6-2.2,0.7-3.4,0.5c-12.6-2.2-25.2,0.9-37.7,0.1c-6.4-0.4-13.1-0.9-19.1-3.8
			c-3.4-1.6-4.3-5-4.8-8.3c-0.3-2.7-0.3-5.3-0.1-8c0-0.8,0.3-1.5,0.6-2.2c6.3,0.8,2.6-3.8,3.3-5.9l24,0.1c0.1,1.1-0.1,2.6,1.5,2.7
			S193.1,93.3,193.3,92.2z M182.4,97.2c0.5,0.4,0.9,0.8,1.2,0.8s1-0.3,1.1-0.6c0.2-0.8-0.4-1.1-1.1-1.1
			C183.3,96.3,182.9,96.7,182.4,97.2L182.4,97.2z"/>
		<path class="st0" d="M135.5,136c0-1.7-0.5-3.3-1.6-4.7c2-5.7,6.6-6.9,15.4-5.5c4.6,0.8,4,3.4,3.9,6.3c0,0.9-0.6,1.9-1.5,1.7
			C146.1,132.8,140.9,135,135.5,136z"/>
		<path class="st0" d="M261.1,115c0.6-3.4-0.9-6.9,1-10.2c0.3,9.5,1.1,19-0.8,28.4c-0.3-0.1-0.6-0.2-0.9-0.3
			C259.2,126.9,261.6,121,261.1,115z"/>
		<path class="st0" d="M349.5,69.3l-1.4,4c-12.6-13.4-34.7-13.3-45.7,0.1c-4.5,5.5-5.3,12.3-7.2,18.7c-1.1,0.4-2.1,0.9-3.2,1.4v-0.2
			l-0.8-0.8l-0.4,0.3v-5.3c-1.7,4.9-5.8,2-8.7,2.8c0-7.1,0-14.2-0.1-21.3c-0.1-5.3,0.9-10.8-1.6-16c-0.6-1.3-1.1-3.6,0.7-5
			c2.5,6.2,4.7,7.3,12.5,6.4c10.8-1.2,21.4,1.5,32.2,0.8c1.4-0.1,2.1,0.8,2.4,2.1c-0.9,0.1-1.9,0.2-3.3,0.4c8.3,1.2,16.2,4.4,23,9.3
			l0.1,0.1l0.9,0.9l0.1,0.1L349.5,69.3z M300.5,67.3c-0.9-0.2-1.2,0.1-1.1,1c-5,3-6,8.2-7.2,13.2c1.7-4.8,3.7-9.4,7.1-13.3
			L300.5,67.3c3.7-3.7,8.4-6,12.8-8.7C308.8,61.3,302.9,61.6,300.5,67.3L300.5,67.3z"/>
		<path class="st0" d="M354.7,72.9l-2.2-2.2c-0.2-0.6-0.7-0.7-1.2-0.5l-0.1-0.1c0-0.6-0.3-0.9-0.9-0.9l-0.1-0.1
			c0.1-0.6-0.3-0.9-0.9-0.9l-0.1-0.1l-0.9-0.9l-0.1-0.1c-0.3-2.1-2.3-2.6-3.7-3.6c-4.3-3.1-9.5-4.1-14.5-5.7
			c1.3-2.1,3.5-1.8,5.4-1.5c14.8,1.8,29.7,1.9,44.4,4.4c3,0.5,6,0.3,8.9,0.6c1.8,0.2,4.1,0.3,4.1,2.6c0.1,2.1-1.8,3.2-3.8,3.2
			c-6.5,0-13-0.1-19.4-0.3c-3.4-0.1-6.8-0.6-10.2-0.4C355.6,66.6,355.2,70,354.7,72.9z"/>
		<path class="st4" d="M330,57.7c5,1.6,10.2,2.6,14.5,5.7c1.4,1,3.4,1.5,3.7,3.6c-6.8-4.9-14.7-8.1-23-9.4c1.4-0.2,2.4-0.3,3.3-0.4
			C328.9,57.4,329.5,57.6,330,57.7z"/>
		<path class="st0" d="M358.7,80.3l-1.1-2.8c1-0.2,2-0.3,2.3,0.9C360.1,79.4,359.4,79.9,358.7,80.3z"/>
		<path d="M282.3,90.4c2.9-0.9,7,2,8.7-2.8v5.2l-0.5,0.8c-2.2-3.2-5.5-0.9-8.1-1.7L282.3,90.4z"/>
		<path class="st0" d="M262.2,96.4l-1.2-1.1c0.4-1.2,0.1-2.4-0.8-3.3c0.6-2.9-2-1.3-2.9-2.1c0.6-2.3,2.5-2.5,4.3-2.9
			C262.7,90,262.9,93.3,262.2,96.4z"/>
		<path class="st2" d="M282.3,91.9c2.7,0.8,6-1.5,8.1,1.7l-0.3,1.8c-2.7,0.5-4.9-1.8-7.6-1.2l-0.3-0.1L282.3,91.9z"/>
		<path class="st0" d="M262.1,103.5c-1.5-1.6-1.5-4.1,0.1-5.6C262.7,99.7,262.7,101.6,262.1,103.5z"/>
		<path class="st1" d="M282.6,94.2c2.7-0.7,4.9,1.7,7.6,1.2c1.2,4.9,1.6,10.1,5.1,14.2l1.1,1.7l-0.1-0.1c0.3,0.4,0.3,1.2,1.1,1.1
			l-0.1-0.1c0.3,3.2,3.5,4.3,4.8,6.8c-6,5.1-12.8,3.8-19.5,2.2C282.1,112.1,282.2,103.2,282.6,94.2z"/>
		<path class="st2" d="M260.2,92.1c0.9,0.8,1.2,2.1,0.8,3.3c-1.3-0.1-3-0.7-3.8,0.3c-2.5,2.8-4.3,3.2-6.3-0.5
			c-0.9-1.6-2.3-0.7-3.2,0.6c-1.6,2.4-3.4,1.7-6,1.4c-4.1-0.5-8.4,0.4-12.6,0.6c-1.1,0.1-2.6,1.7-2.9-1.5c-0.2-2.4-2.9-0.5-4.2,0.2
			c-1.6,0.8-2.5,2.3-4.3-0.3c-1-1.4-4-3.2-5.9,0.6c-1.3,2.6-3.4,1.1-4.3-0.5c-1.7-2.9-2.8-2-4.3,0.1c-1.6,2.3-3.6,3.3-4-0.6
			c-0.3-2.8-4-0.8-4-3.5C216.9,91.4,238.5,92.1,260.2,92.1z"/>
		<path class="st2" d="M193.3,92.2c-0.1,1.1,0.1,2.6-1.5,2.6s-1.4-1.5-1.5-2.7L193.3,92.2z"/>
		<path class="st0" d="M349.5,75c3.5,0.2,2.6,2.9,2.8,4.9L349.5,75z"/>
		<path class="st0" d="M352.5,80.1l0.7,1.1L352.5,80.1z"/>
		<path class="st0" d="M348.7,74.2c0.3,0.2,0.5,0.4,0.6,0.6L348.7,74.2z"/>
		<path class="st0" d="M318,124.3c8.3,0.4,16.5-1,24.2-4.1c-2.7,4.8-8,4.5-12.3,5.7c-3.8,1-7.8,0.9-11.6-0.2L318,124.3z"/>
		<path d="M318,124.3l0.3,1.4c-4.1-1.3-8.6-1.7-12.1-4.6C310.3,121.5,313.7,124.7,318,124.3z"/>
		<path d="M302.1,118.8c-1.4-2.4-4.6-3.6-4.8-6.8l7.1,7.1C303.6,119.1,302.8,119,302.1,118.8z"/>
		<path d="M304.2,119.1c0.8,0.6,2.3,0.6,2.1,2.2C305.4,120.7,304.1,120.5,304.2,119.1z"/>
		<path class="st0" d="M342.3,120.1c0.2-0.7,1-1.2,1.7-1c0,0,0.1,0,0.1,0C343.9,120.3,343.2,120.3,342.3,120.1z"/>
		<path class="st4" d="M295.2,109.6c-3.4-4.1-3.9-9.3-5.1-14.2l0.3-1.8l0.5-0.8c0,0,0.4-0.3,0.4-0.3l0.8,0.8v0.2
			C291.3,99.3,294.4,104.2,295.2,109.6L295.2,109.6z"/>
		<path d="M295.2,109.6L295.2,109.6c1.1,0.1,0.6,1.1,1.1,1.6L295.2,109.6z"/>
		<path d="M297.3,112.2c-0.9,0.1-0.8-0.7-1.1-1.1L297.3,112.2z"/>
		<path class="st4" d="M351.3,70.2c0.5-0.2,1-0.1,1.2,0.5l-0.4,0.8c-0.5-0.1-0.9-0.6-0.8-1.2C351.3,70.3,351.3,70.3,351.3,70.2z"/>
		<path class="st4" d="M349.3,68.2c0.6,0,0.9,0.3,0.9,0.9c-0.2,0.1-0.4,0.2-0.6,0.2L349.3,68.2z"/>
		<path class="st4" d="M350.3,69.2c0.6,0,0.9,0.3,0.9,0.9C350.6,70.1,350.3,69.8,350.3,69.2z"/>
		<path class="st2" d="M182.4,97.1c0.5-0.4,0.9-0.8,1.2-0.8c0.7,0,1.3,0.3,1.1,1.1c-0.1,0.3-0.7,0.6-1.1,0.6S182.9,97.5,182.4,97.1z
			"/>
		<path d="M299.3,68.3c-3.4,3.9-5.4,8.5-7.1,13.3c1.2-5.1,2.2-10.2,7.2-13.2L299.3,68.3z"/>
		<path d="M300.5,67.4c2.3-5.8,8.3-6.1,12.7-8.7c-4.4,2.7-9,5-12.8,8.6L300.5,67.4z"/>
		<path class="st2" d="M292.1,93.3l-0.8-0.8L292.1,93.3z"/>
		<path d="M299.4,68.4c-0.1-0.8,0.2-1.2,1.1-1l-0.1-0.1c-0.4,0.3-0.7,0.6-1.1,1L299.4,68.4z"/>
		<path class="st4" d="M348.3,67.2l0.9,0.9L348.3,67.2z"/>
	</g>
</g>
</svg>
